<svg xmlns="http://www.w3.org/2000/svg">
  <defs>
    <style>.o{fill:none;stroke:#352719;stroke-width:6;stroke-linecap:round;stroke-linejoin:round}.g{fill:#52683e;stroke:#352719;stroke-width:5}.y{fill:#f2c94f;stroke:#352719;stroke-width:5}.r{fill:#c94e3f;stroke:#352719;stroke-width:5}.b{fill:#66a9aa;stroke:#352719;stroke-width:5}.p{fill:#fff8df;stroke:#352719;stroke-width:5}</style>
    <symbol id="paliacates" viewBox="0 0 100 100"><path class="r" d="M18 27 46 14l12 25-25 34-18-13 17-20Z"/><path class="y" d="m48 33 34-10 7 29-37 30-14-17 24-22Z"/><circle class="g" cx="48" cy="43" r="9"/></symbol>
    <symbol id="piola" viewBox="0 0 100 100"><path class="o" d="M50 18c-26 0-34 27-17 39 20 14 43-10 25-22-14-10-32 8-21 25 13 20 49 14 48-13"/><path class="y" d="m76 62 12 8-14 17-12-10Z"/></symbol>
    <symbol id="escritura" viewBox="0 0 100 100"><rect class="p" x="18" y="19" width="48" height="64" rx="7"/><path class="o" d="M30 35h24M30 48h24M30 61h16"/><path class="y" d="m67 72 16-45 9 4-16 45-10 9Z"/></symbol>
    <symbol id="costurero" viewBox="0 0 100 100"><rect class="g" x="15" y="35" width="70" height="47" rx="10"/><path class="y" d="M28 35c0-22 44-22 44 0"/><path class="o" d="M50 52v14M43 59h14"/></symbol>
    <symbol id="credencial" viewBox="0 0 100 100"><rect class="p" x="17" y="20" width="66" height="62" rx="8"/><circle class="b" cx="37" cy="45" r="11"/><path class="o" d="M57 38h15M57 49h15M29 67h43"/></symbol>
    <symbol id="dinero" viewBox="0 0 100 100"><rect class="g" x="13" y="26" width="74" height="50" rx="8"/><circle class="y" cx="50" cy="51" r="15"/><path class="o" d="M50 40v22M56 44c-8-6-17 1-9 6 12 3 10 13 0 9"/></symbol>
    <symbol id="agenda" viewBox="0 0 100 100"><rect class="r" x="22" y="16" width="60" height="70" rx="7"/><path class="o" d="M35 16v70M29 31h12M29 45h12M29 59h12"/><path class="p" d="M49 33h23v33H49z"/></symbol>
    <symbol id="mochila-ataque" viewBox="0 0 100 100"><path class="g" d="M29 33c0-16 42-16 42 0l9 11v41H20V44Z"/><path class="p" d="M31 51h38v25H31z"/><path class="y" d="M36 31c3-18 25-18 28 0"/><path class="o" d="M20 49H12v27h8M80 49h8v27h-8M39 59h22"/></symbol>
    <symbol id="snack" viewBox="0 0 100 100"><path class="y" d="M27 23h46l9 61H18Z"/><path class="r" d="M24 39h52l-5 28H29Z"/><path class="o" d="M35 23v-8h30v8"/></symbol>
    <symbol id="agua" viewBox="0 0 100 100"><path class="b" d="M34 23h32v13l8 10v35H26V46l8-10Z"/><path class="g" d="M36 13h28v13H36z"/><path class="p" d="M35 52h30v19H35z"/></symbol>
    <symbol id="sol" viewBox="0 0 100 100"><circle class="y" cx="34" cy="36" r="17"/><path class="o" d="M34 10v8M34 54v9M8 36h9M51 36h9M16 18l6 6M46 48l6 6"/><path class="g" d="M49 68c13-22 31-17 38 0-12-5-25-4-38 0Z"/><path class="r" d="M54 68h28l-3 18H57Z"/></symbol>
    <symbol id="gorra" viewBox="0 0 100 100"><path class="y" d="M19 54c2-23 18-36 38-36 18 0 29 11 30 31-19-6-45-4-68 5Z"/><path class="g" d="M18 55c25-9 54-10 75-1-6 12-23 17-45 13-13-2-23-6-30-12Z"/><path class="o" d="M56 19v30M24 52c20-8 43-9 62-3"/></symbol>
    <symbol id="impermeable" viewBox="0 0 100 100"><path class="b" d="M36 18c8-7 20-7 28 0l7 14 16 14-12 17-10-8v30H35V55l-10 8-12-17 16-14Z"/><path class="o" d="M40 21c5 10 15 10 20 0M50 33v47"/></symbol>
    <symbol id="sueter" viewBox="0 0 100 100"><path class="g" d="M34 19c9 7 23 7 32 0l21 20-13 18-9-7v35H35V50l-9 7-13-18Z"/><path class="o" d="M42 22c1 12 15 12 16 0M42 48h16"/></symbol>
    <symbol id="frontal" viewBox="0 0 100 100"><path class="o" d="M18 55c5-35 59-39 69-4"/><rect class="g" x="31" y="42" width="43" height="32" rx="9"/><circle class="y" cx="53" cy="58" r="10"/><path class="y" d="m77 48 13-7v34l-13-7Z"/></symbol>
    <symbol id="salud" viewBox="0 0 100 100"><path class="p" d="M23 15h54v70H23z"/><path class="g" d="M39 11h22v13H39z"/><path class="r" d="M44 35h12v12h12v12H56v12H44V59H32V47h12Z"/><path class="o" d="M65 72h5"/></symbol>
    <symbol id="autorizacion" viewBox="0 0 100 100"><path class="p" d="M20 12h60v76H20z"/><path class="o" d="M31 31h38M31 44h38M31 57h24"/><path class="y" d="m53 76 22-24 10 9-22 24-14 3Z"/><path class="g" d="m28 68 7 7 14-18"/></symbol>
    <symbol id="carga" viewBox="0 0 100 100"><circle class="y" cx="50" cy="19" r="10"/><path class="p" d="M39 31h22l8 18-7 8-5-11v38H43V46l-5 11-7-8Z"/><path class="g" d="M58 34h16c8 0 12 7 12 15v22H65V48Z"/><path class="o" d="M31 49 13 62M69 49l18 13M43 84l-9 7M57 84l9 7M65 42h13M70 57h16"/></symbol>
    <symbol id="uniforme" viewBox="0 0 100 100"><path class="y" d="M30 18h40l16 16-14 16-8-7v41H36V43l-8 7-14-16Z"/><path class="o" d="M41 19c2 12 16 12 18 0M50 33v49M37 48h11M52 48h11"/><path class="r" d="m42 25 8 9 8-9-8 28Z"/></symbol>
    <symbol id="marcado" viewBox="0 0 100 100"><path class="p" d="M17 28h53l14 22-14 22H17z"/><circle class="g" cx="70" cy="50" r="6"/><path class="o" d="M29 43h26M29 57h20"/><path class="y" d="m60 82 21-24 8 8-22 23-11 2Z"/></symbol>
    <symbol id="bazar" viewBox="0 0 100 100"><path class="p" d="M12 35h76v45H12z"/><path class="g" d="M20 24h60l8 11H12Z"/><path class="o" d="M30 45v25M50 45v25M70 45v25"/><circle class="y" cx="30" cy="52" r="8"/><path class="r" d="M44 46h13v18H44z"/><path class="b" d="m64 63 7-17 8 17Z"/></symbol>
    <symbol id="mochila-campamento" viewBox="0 0 100 100"><path class="g" d="M29 20h42l8 18v43H21V38Z"/><path class="y" d="M34 16h32l7 16H27Z"/><path class="p" d="M31 45h38v27H31z"/><path class="b" d="M14 48h10v27H14zM76 48h10v27H76z"/><path class="o" d="M36 55h28M36 64h28M27 80h46M20 84h60M31 24h38"/><path class="r" d="M44 75h12v11H44z"/></symbol>
    <symbol id="liner" viewBox="0 0 100 100"><path class="g" d="M20 26h60l6 60H14Z"/><path class="b" d="M25 30h50l4 48H21Z"/><path class="p" d="M29 38h42l3 34H26Z"/><path class="o" d="M20 26c10 8 50 8 60 0M30 16l8 12M70 16l-8 12M34 44h32M39 53h22"/><path class="y" d="m44 59 6 8 6-8"/></symbol>
    <symbol id="bolsas" viewBox="0 0 100 100"><path class="p" d="M10 28h42v58H10z"/><path class="b" d="M34 18h45v61H34z"/><path class="y" d="M58 28h32v54H58z"/><path class="o" d="M10 38h42M34 29h45M58 39h32"/><path class="g" d="m22 53 9-6 9 6-5 8v14H27V61Z"/><path class="r" d="M45 48c9-11 20 0 11 8-7 6-7 11-7 16M69 50h10v20H69z"/></symbol>
    <symbol id="aislante" viewBox="0 0 100 100"><path class="g" d="M13 31h62c16 0 16 30 0 30H13Z"/><circle class="y" cx="74" cy="46" r="15"/><circle class="p" cx="74" cy="46" r="7"/><path class="o" d="M18 39h42M18 47h42M18 55h42"/><path class="r" d="M34 28h9v36h-9zM55 28h9v36h-9z"/></symbol>
    <symbol id="sleeping" viewBox="0 0 100 100"><path class="b" d="M32 12h36c10 0 17 8 17 18l-9 54c-1 7-7 10-13 10H37c-6 0-12-3-13-10l-9-54c0-10 7-18 17-18Z"/><path class="p" d="M30 20c8-7 32-7 40 0l-5 20H35Z"/><path class="y" d="M38 24h24v11H38z"/><path class="o" d="M68 22 59 84M31 50h29M29 62h29M27 74h29"/><path class="r" d="M58 47h10v10H58z"/></symbol>
    <symbol id="pijama" viewBox="0 0 100 100"><path class="r" d="M17 27 35 14h30l18 13-10 17-9-6v47H36V38l-9 6Z"/><path class="o" d="M42 15c1 11 15 11 16 0M50 31v52"/><path class="p" d="M67 58c18 0 21 27 2 27-14 0-17-16-2-27Z"/><path class="y" d="M71 63h12"/></symbol>
    <symbol id="cobija" viewBox="0 0 100 100"><path class="y" d="M14 24h62v56H14z"/><path class="r" d="M14 38h62v12H14zM14 61h62v12H14z"/><path class="b" d="M66 20h18v64H66z"/><path class="o" d="M77 20v64M22 80v8M34 80v8M46 80v8M58 80v8M72 84v6M82 84v6"/></symbol>
    <symbol id="ropa" viewBox="0 0 100 100"><path class="g" d="M12 23 27 14h20l15 9-8 14-8-5v29H28V32l-8 5Z"/><path class="b" d="M58 19h25l5 51H72l-2-25-2 25H52Z"/><path class="r" d="M14 63h22v19H14z"/><path class="y" d="M42 68c7-9 14 0 8 6-5 4-7 8-7 13M59 72c7-9 14 0 8 6-5 4-7 8-7 13"/><path class="o" d="M32 15c1 8 10 8 11 0M68 20l2 25"/></symbol>
    <symbol id="calzado" viewBox="0 0 100 100"><path class="g" d="M14 59c13 0 19-11 25-25h13l5 22c9 8 19 7 29 12v15H14Z"/><path class="y" d="M49 29h16l5 24c8 7 14 5 20 11v13H58l-8-19Z"/><path class="o" d="M24 67h28M57 62h24M36 46h13"/></symbol>
    <symbol id="abrigo" viewBox="0 0 100 100"><path class="b" d="M26 28h33l15 16-10 14-7-7v35H31V51l-7 7-10-14Z"/><path class="o" d="M34 29c1 10 13 10 15 0M44 40v44M35 60h18"/><path class="y" d="M63 18c0-14 25-14 25 0v15H63Z"/><path class="g" d="M64 30h24v8H64z"/><path class="r" d="M68 58c8-8 16 1 11 9l-7 11-10-7ZM84 58c8-8 16 1 11 9l-7 11-10-7Z"/></symbol>
    <symbol id="aseo" viewBox="0 0 100 100"><path class="p" d="M10 40h80v44H10z"/><path class="g" d="M27 30h46v10H27z"/><path class="r" d="M20 48h14v28H20z"/><path class="b" d="M42 54h14v22H42z"/><path class="y" d="M67 43h7v33h-7z"/><path class="o" d="M15 81h70M67 49h18M78 46v30M38 50l20-17M54 30l7 8"/><path class="g" d="M74 57h12v19H74z"/></symbol>
    <symbol id="vajilla" viewBox="0 0 100 100"><circle class="p" cx="36" cy="53" r="27"/><circle class="y" cx="36" cy="53" r="15"/><path class="b" d="M59 49h23v27H59z"/><path class="o" d="M82 57h7c8 0 8 12 0 12h-7M69 49v27M92 19v66M87 20v24c0 8 10 8 10 0V20"/></symbol>
    <symbol id="bolsa-extra" viewBox="0 0 100 100"><path class="g" d="m35 20 15 8 15-8 9 13 10 53H16l10-53Z"/><path class="o" d="M26 33c12 8 36 8 48 0M35 20c4 4 26 4 30 0"/><path class="b" d="M28 49h24v23H28z"/><path class="r" d="M58 52c10-9 21 2 12 11l-7 8-9-8Z"/><path class="y" d="M34 55h12M34 63h12"/></symbol>
  </defs>
</svg>
